<svg xmlns="http://www.w3.org/2000/svg" xmlns:xlink="http://www.w3.org/1999/xlink" width="78.58" height="108.286" viewBox="0 0 78.58 108.286"><defs><filter id="a" x="0" y="0" width="78.58" height="78.58" filterUnits="userSpaceOnUse"><feOffset dy="3" input="SourceAlpha"/><feGaussianBlur stdDeviation="3" result="b"/><feFlood flood-opacity="0.322"/><feComposite operator="in" in2="b"/><feComposite in="SourceGraphic"/></filter></defs><g transform="translate(9 6)"><g transform="matrix(1, 0, 0, 1, -9, -6)" filter="url(#a)"><circle cx="30.29" cy="30.29" r="30.29" transform="translate(9 6)" fill="#aab5e0"/></g><path d="M18.048,2C10.286,2,4,2.878,4,9.024V25.705a6.153,6.153,0,0,0,6.146,6.146L7.512,34.485v.878H28.583v-.878l-2.634-2.634A6.153,6.153,0,0,0,32.1,25.705V9.024C32.1,2.878,25.809,2,18.048,2Zm-7.9,26.339a2.634,2.634,0,1,1,2.634-2.634A2.63,2.63,0,0,1,10.146,28.339ZM16.292,17.8H7.512V9.024h8.78Zm9.658,10.536a2.634,2.634,0,1,1,2.634-2.634A2.63,2.63,0,0,1,25.949,28.339ZM28.583,17.8H19.8V9.024h8.78Z" transform="translate(12.682 12.048)" fill="#fffdfd"/><text transform="translate(0.146 70.238)" fill="#b9b9b9" font-size="12" font-family="Runda-Normal, Runda"><tspan x="5.249" y="11">$20-$30</tspan></text><text transform="translate(0.024 87.286)" fill="#b9b9b9" font-size="12" font-family="Runda-Normal, Runda"><tspan x="5.708" y="11">SUBWAY</tspan></text></g></svg>